<!DOCTYPE svg PUBLIC "-//W3C//DTD SVG 20010904//EN" "http://www.w3.org/TR/2001/REC-SVG-20010904/DTD/svg10.dtd">
<svg version="1.0" xmlns="http://www.w3.org/2000/svg" width="512px" height="512px" viewBox="0 0 5120 5120" preserveAspectRatio="xMidYMid meet">
<g id="layer1" fill="#1a526e" stroke="none">
 <path d="M2945 5066 c-11 -8 -14 -16 -8 -19 6 -4 18 0 28 7 11 8 14 16 8 19 -6 4 -18 0 -28 -7z"/>
 <path d="M2238 4611 c-295 -192 -412 -277 -402 -292 3 -5 24 4 47 20 68 47 246 128 338 155 85 24 201 44 289 49 l45 2 0 125 c0 103 -3 125 -15 127 -8 1 -144 -83 -302 -186z"/>
 <path d="M3639 2956 c-1 -3 -2 -9 -3 -13 -1 -5 -5 -13 -9 -20 -4 -6 -3 -14 3 -18 5 -3 11 -4 11 -1 1 3 2 9 3 14 1 4 5 12 9 19 4 6 3 14 -3 18 -5 3 -11 4 -11 1z"/>
 <path d="M3335 1056 c-11 -8 -14 -16 -8 -19 6 -4 18 0 28 7 11 8 14 16 8 19 -6 4 -18 0 -28 -7z"/>
 <path d="M2705 676 c-11 -8 -14 -16 -8 -19 6 -4 18 0 28 7 11 8 14 16 8 19 -6 4 -18 0 -28 -7z"/>
 <path d="M2545 591 c-32 -7 -37 -24 -8 -29 20 -3 61 22 47 30 -5 2 -22 2 -39 -1z"/>
 </g>
<g id="layer2" fill="#268a8f" stroke="none">
 <path d="M2536 3562 c-3 -5 3 -17 13 -26 11 -10 22 -13 25 -8 3 5 -3 17 -13 26 -11 10 -22 13 -25 8z"/>
 <path d="M2766 3312 c-3 -5 3 -17 13 -26 11 -10 22 -13 25 -8 3 5 -3 17 -13 26 -11 10 -22 13 -25 8z"/>
 <path d="M1385 3201 c-6 -11 13 -26 22 -17 3 3 12 1 19 -5 7 -6 18 -8 24 -4 14 9 1 28 -16 21 -7 -3 -16 -1 -19 4 -8 13 -22 13 -30 1z"/>
 <path d="M1515 3171 c-7 -12 12 -24 25 -16 11 7 4 25 -10 25 -5 0 -11 -4 -15 -9z"/>
 <path d="M1605 3151 c-7 -12 12 -24 25 -16 11 7 4 25 -10 25 -5 0 -11 -4 -15 -9z"/>
 <path d="M1695 3131 c-6 -11 13 -26 22 -17 3 3 12 1 19 -5 7 -6 18 -8 24 -4 14 9 1 28 -16 21 -7 -3 -16 -1 -19 4 -8 13 -22 13 -30 1z"/>
 <path d="M1785 3111 c-6 -11 13 -26 22 -17 3 3 12 1 19 -5 7 -6 18 -8 24 -4 14 9 1 28 -16 21 -7 -3 -16 -1 -19 4 -8 13 -22 13 -30 1z"/>
 <path d="M1875 3091 c-6 -11 13 -26 22 -17 3 3 12 1 19 -5 7 -6 18 -8 24 -4 14 9 1 28 -16 21 -7 -3 -16 -1 -19 4 -8 13 -22 13 -30 1z"/>
 <path d="M3488 2959 c-101 -73 -193 -139 -205 -148 -12 -9 -25 -22 -28 -30 -6 -14 135 -270 159 -290 17 -14 32 3 90 107 61 108 116 235 155 355 33 104 36 123 22 132 -5 3 -92 -54 -193 -126z"/>
 <path d="M2005 3061 c-7 -12 12 -24 25 -16 11 7 4 25 -10 25 -5 0 -11 -4 -15 -9z"/>
 <path d="M2095 3041 c-7 -12 12 -24 25 -16 11 7 4 25 -10 25 -5 0 -11 -4 -15 -9z"/>
 <path d="M2185 3021 c-6 -11 13 -26 22 -17 3 3 12 1 19 -5 7 -6 18 -8 24 -4 14 9 1 28 -16 21 -7 -3 -16 -1 -19 4 -8 13 -22 13 -30 1z"/>
 <path d="M2275 3001 c-6 -11 13 -26 22 -17 3 3 12 1 19 -5 7 -6 18 -8 24 -4 14 9 1 28 -16 21 -7 -3 -16 -1 -19 4 -8 13 -22 13 -30 1z"/>
 <path d="M2365 2981 c-6 -11 13 -26 22 -17 3 3 12 1 19 -5 7 -6 18 -8 24 -4 14 9 1 28 -16 21 -7 -3 -16 -1 -19 4 -8 13 -22 13 -30 1z"/>
 <path d="M2495 2951 c-7 -12 12 -24 25 -16 11 7 4 25 -10 25 -5 0 -11 -4 -15 -9z"/>
 <path d="M2585 2931 c-7 -12 12 -24 25 -16 11 7 4 25 -10 25 -5 0 -11 -4 -15 -9z"/>
 <path d="M3116 2932 c-3 -5 3 -17 13 -26 11 -10 22 -13 25 -8 3 5 -3 17 -13 26 -11 10 -22 13 -25 8z"/>
 <path d="M2675 2911 c-6 -11 13 -26 22 -17 3 3 12 1 19 -5 7 -6 18 -8 24 -4 14 9 1 28 -16 21 -7 -3 -16 -1 -19 4 -8 13 -22 13 -30 1z"/>
 <path d="M2765 2891 c-6 -11 13 -26 22 -17 3 3 12 1 19 -5 7 -6 18 -8 24 -4 14 9 1 28 -16 21 -7 -3 -16 -1 -19 4 -8 13 -22 13 -30 1z"/>
 <path d="M2855 2871 c-6 -11 13 -26 22 -17 3 3 12 1 19 -5 7 -6 18 -8 24 -4 14 9 1 28 -16 21 -7 -3 -16 -1 -19 4 -8 13 -22 13 -30 1z"/>
 <path d="M2945 2851 c-6 -11 13 -26 22 -17 3 3 12 1 19 -5 7 -6 18 -8 24 -4 14 9 1 28 -16 21 -7 -3 -16 -1 -19 4 -8 13 -22 13 -30 1z"/>
 <path d="M3075 2821 c-7 -12 12 -24 25 -16 11 7 4 25 -10 25 -5 0 -11 -4 -15 -9z"/>
 <path d="M3165 2801 c-7 -12 12 -24 25 -16 11 7 4 25 -10 25 -5 0 -11 -4 -15 -9z"/>
 </g>
<g id="layer3" fill="#83d0d1" stroke="none">
 <path d="M2004 1966 c-3 -7 12 -43 34 -78 228 -372 377 -774 437 -1173 9 -60 20 -117 24 -125 10 -18 67 -25 85 -11 7 6 16 39 20 74 10 96 60 331 101 468 47 161 112 323 192 483 51 104 61 132 51 141 -11 10 -905 235 -931 235 -4 0 -10 -6 -13 -14z"/>
 </g>
<g id="layer4" fill="#4fbcbf" stroke="none">
 <path d="M1396 3101 c-8 -13 41 -182 85 -289 57 -141 140 -283 337 -583 l175 -266 479 -118 c277 -68 482 -114 487 -109 4 5 45 72 91 148 60 101 80 143 74 154 -10 15 -1700 1072 -1714 1072 -5 0 -11 -4 -14 -9z"/>
 </g>
<g id="layer5" fill="#137d87" stroke="none">
 <path d="M1383 3184 c-3 -9 -2 -33 3 -53 9 -35 35 -52 869 -573 473 -296 865 -536 870 -535 17 4 304 441 305 463 0 12 -36 84 -80 160 l-80 139 -923 207 c-507 114 -930 208 -940 208 -10 0 -20 -7 -24 -16z"/>
 </g>
<g id="layer6" fill="#4f9ba5" stroke="none">
 <path d="M2528 4554 c-3 -5 -18 -212 -34 -460 l-28 -452 -115 -35 c-64 -20 -255 -77 -426 -127 -170 -51 -364 -108 -430 -129 l-120 -37 -3 -57 c-3 -51 -1 -58 20 -67 51 -23 1852 -420 1862 -410 6 6 4 16 -5 29 -13 17 -186 207 -531 579 -65 70 -140 152 -167 183 l-50 55 585 30 c345 18 588 34 594 40 8 8 2 34 -16 85 -131 367 -440 647 -821 745 -102 26 -306 44 -315 28z"/>
 </g>
<g id="layer7" fill="#166376" stroke="none">
 <path d="M2332 4545 c-411 -75 -758 -362 -902 -748 -41 -111 -61 -226 -63 -361 -2 -127 -1 -131 20 -134 12 -2 88 17 170 42 81 25 272 81 423 126 151 45 323 96 383 115 l107 33 378 -410 c207 -226 381 -416 385 -424 4 -8 15 -14 23 -14 23 0 432 297 438 318 42 138 37 548 -7 605 -11 14 -77 12 -600 -15 -323 -17 -590 -29 -593 -25 -3 3 6 201 21 440 16 239 25 442 22 451 -8 20 -97 21 -205 1z"/>
 <path d="M3646 3781 c-4 -5 -2 -12 4 -16 6 -4 8 -10 5 -15 -3 -5 -1 -11 4 -14 5 -4 12 -2 15 3 4 5 2 12 -4 16 -6 4 -8 10 -5 15 3 5 1 11 -4 14 -5 4 -12 2 -15 -3z"/>
 </g>
<g id="layer8" fill="#2f5d8e" stroke="none">
 <path d="M2538 4946 c-2 -87 0 -160 3 -161 7 -5 387 239 414 266 12 12 16 22 9 29 -5 5 -102 12 -216 16 l-207 7 -3 -157z"/>
 <path d="M3595 4890 c-3 -5 8 -16 24 -25 18 -9 32 -11 36 -5 3 5 -8 16 -24 25 -18 9 -32 11 -36 5z"/>
 <path d="M3755 4810 c-3 -5 8 -16 24 -25 18 -9 32 -11 36 -5 3 5 -8 16 -24 25 -18 9 -32 11 -36 5z"/>
 <path d="M2444 4742 c-40 -26 -71 -51 -70 -57 2 -14 7 -11 86 41 38 26 67 51 64 55 -7 12 0 15 -80 -39z"/>
 <path d="M2274 4632 c-40 -26 -71 -51 -70 -57 2 -14 7 -11 86 41 38 26 67 51 64 55 -7 12 0 15 -80 -39z"/>
 <path d="M2104 4522 c-40 -26 -71 -51 -70 -57 2 -14 7 -11 86 41 38 26 67 51 64 55 -7 12 0 15 -80 -39z"/>
 <path d="M4236 4482 c-3 -5 3 -17 13 -26 11 -10 22 -13 25 -8 3 5 -3 17 -13 26 -11 10 -22 13 -25 8z"/>
 <path d="M1968 4435 c-35 -24 -52 -48 -41 -59 3 -3 15 4 27 17 12 12 32 29 45 38 14 9 20 18 15 22 -6 3 -27 -5 -46 -18z"/>
 <path d="M4456 4262 c-3 -5 3 -17 13 -26 11 -10 22 -13 25 -8 3 5 -3 17 -13 26 -11 10 -22 13 -25 8z"/>
 <path d="M4787 3804 c-9 -10 22 -66 33 -59 6 4 4 18 -5 36 -17 31 -18 32 -28 23z"/>
 <path d="M4867 3644 c-9 -10 22 -66 33 -59 6 4 4 18 -5 36 -17 31 -18 32 -28 23z"/>
 <path d="M4907 3553 c-4 -6 0 -18 7 -28 8 -11 16 -14 19 -8 4 6 0 18 -7 28 -8 11 -16 14 -19 8z"/>
 <path d="M5054 2101 c-16 -15 -890 -544 -2104 -1274 -173 -104 -326 -199 -340 -212 -30 -27 -61 -36 -83 -24 -24 14 -29 -6 -7 -26 19 -17 20 -32 20 -287 l0 -268 103 0 c530 0 1018 166 1467 498 150 112 390 352 502 502 236 319 393 670 463 1033 14 73 9 86 -21 58z"/>
 </g>
<g id="layer9" fill="#214265" stroke="none">
 <path d="M2752 4945 l-213 -137 3 -132 3 -131 92 -8 c410 -34 777 -287 958 -662 127 -261 145 -529 59 -853 -57 -214 -154 -399 -414 -792 -186 -280 -271 -421 -356 -590 -162 -325 -247 -604 -308 -1018 -8 -55 13 -66 52 -29 15 14 571 354 1237 755 702 424 1212 738 1216 748 13 35 29 298 29 464 0 300 -25 500 -91 725 -232 795 -846 1433 -1633 1696 -126 42 -288 83 -371 94 l-50 7 -213 -137z"/>
 </g>
<g id="layer10" fill="#386fa9" stroke="none">
 <path d="M2230 5090 c-286 -20 -701 -163 -995 -342 -175 -107 -323 -224 -481 -382 -291 -291 -487 -605 -613 -981 -96 -289 -120 -454 -120 -830 0 -376 24 -541 120 -830 126 -376 322 -690 613 -981 291 -291 605 -487 981 -613 244 -81 486 -121 738 -121 l87 0 0 276 0 277 -23 21 c-18 17 -26 38 -31 87 -17 144 -76 398 -133 569 -104 312 -213 518 -523 990 -278 422 -359 579 -420 815 -82 317 -57 593 79 863 71 141 225 321 360 420 20 14 48 36 62 49 14 13 160 111 325 217 l299 194 3 156 3 156 -113 -2 c-62 0 -160 -4 -218 -8z"/>
 </g>

</svg>